Coordinates
version=1
nRows=29
nColumns=22
inDegrees=yes

Units are S.I. units (second, meters, Newtons, ...)
If the header above contains a line with 'inDegrees', this indicates whether rotational values are in degrees (yes) or radians (no).

endheader
time	pelvis_tilt	pelvis_list	pelvis_rotation	pelvis_tx	pelvis_ty	pelvis_tz	hip_flexion_r	hip_adduction_r	hip_rotation_r	knee_angle_r	ankle_angle_r	subtalar_angle_r	hip_flexion_l	hip_adduction_l	hip_rotation_l	knee_angle_l	ankle_angle_l	subtalar_angle_l	lumbar_extension	lumbar_bending	lumbar_rotation
      2.83000000	      4.49471884	      3.98230543	   -323.61301209	     -0.53223440	      0.94377051	     -0.52541647	     17.79868849	      2.50127764	     -7.96924275	    -58.96520777	      0.38479046	      0.05388211	      1.48301365	     -5.91342161	    -10.98039238	    -21.72206477	     20.29673710	     -2.46358057	    -15.20473483	      1.55654739	    -14.54089535
      2.84000000	      4.69715496	      3.94294402	   -323.95195468	     -0.52529102	      0.94456532	     -0.53111570	     18.61879656	      2.17555825	     -9.26583608	    -57.36398257	      1.24430092	     -0.12251626	      0.21159658	     -6.00373372	    -11.68957510	    -20.92602504	     20.56464497	     -2.11979805	    -15.41701860	      1.78661779	    -14.84924809
      2.85000000	      4.85302683	      3.94494617	   -324.30335458	     -0.51824276	      0.94503493	     -0.53676533	     19.37149523	      1.79427476	    -10.52170883	    -55.59111311	      1.96111811	     -0.25247819	     -1.03099726	     -6.02358516	    -12.45717755	    -20.17185993	     20.84898530	     -1.73310928	    -15.61722732	      1.94261288	    -15.12843534
      2.86000000	      4.95427586	      3.94523981	   -324.66121612	     -0.51105333	      0.94515071	     -0.54236235	     20.08357955	      1.42400737	    -11.68587873	    -53.62882826	      2.58293300	     -0.27674800	     -2.21986792	     -5.99220689	    -13.18861112	    -19.43585944	     21.14429117	     -1.43454210	    -15.76094318	      2.06393344	    -15.40391176
      2.87000000	      5.01698274	      3.96646217	   -325.02132901	     -0.50372437	      0.94493237	     -0.54789281	     20.73557933	      1.05060316	    -12.77053736	    -51.49705688	      3.07155320	     -0.27026775	     -3.36268135	     -5.91109187	    -13.92510859	    -18.75521184	     21.47120982	     -1.19174106	    -15.88505606	      2.13671194	    -15.66021974
      2.88000000	      5.04120497	      3.99359079	   -325.37556182	     -0.49624971	      0.94437167	     -0.55335495	     21.33571560	      0.69801813	    -13.76553188	    -49.19368215	      3.43155431	     -0.24468635	     -4.44275970	     -5.79425541	    -14.63767956	    -18.14011651	     21.83734829	     -1.04527338	    -15.97801250	      2.17657320	    -15.89495744
      2.89000000	      5.03428837	      4.03233250	   -325.72096410	     -0.48861834	      0.94349270	     -0.55872709	     21.87428686	      0.38050517	    -14.64266573	    -46.71700211	      3.63178126	     -0.21673662	     -5.46602854	     -5.64628884	    -15.32721892	    -17.59533279	     22.23476289	     -1.00319084	    -16.04948914	      2.18202386	    -16.14190676
      2.90000000	      5.00533964	      4.07729479	   -326.05324368	     -0.48083098	      0.94231362	     -0.56401560	     22.34379068	      0.10547422	    -15.41128372	    -44.07176806	      3.69460020	     -0.18007880	     -6.43323927	     -5.47842539	    -15.96967346	    -17.12755925	     22.66740995	     -1.08044014	    -16.10422557	      2.16358593	    -16.37346412
      2.91000000	      4.95266297	      4.12561777	   -326.37140241	     -0.47287481	      0.94084396	     -0.56922118	     22.74654227	     -0.12581350	    -16.06854897	    -41.26699550	      3.63659417	     -0.11860576	     -7.34284510	     -5.29376850	    -16.55059414	    -16.73386578	     23.12869809	     -1.28043611	    -16.13623692	      2.12189495	    -16.58341377
      2.92000000	      4.89350442	      4.17981543	   -326.67495141	     -0.46475238	      0.93912681	     -0.57433901	     23.06434143	     -0.30550075	    -16.60214094	    -38.31434634	      3.47737277	     -0.01280959	     -8.20971237	     -5.10531326	    -17.07027075	    -16.41922780	     23.63328942	     -1.58672269	    -16.16221210	      2.06709811	    -16.78929757
      2.93000000	      4.83338675	      4.23196771	   -326.96350942	     -0.45645350	      0.93718108	     -0.57936712	     23.29821564	     -0.43478657	    -17.03091106	    -35.23951111	      3.22580916	      0.13600136	     -9.02956832	     -4.93221772	    -17.54592663	    -16.19750125	     24.18297141	     -1.92593363	    -16.18089926	      2.00780311	    -16.98034619
      2.94000000	      4.78147342	      4.28423148	   -327.24112469	     -0.44796635	      0.93504572	     -0.58432233	     23.44391580	     -0.52448765	    -17.37779261	    -32.08477177	      2.91041301	      0.32555274	     -9.82265558	     -4.77730882	    -17.97952136	    -16.05328839	     24.76858946	     -2.25827660	    -16.19826048	      1.94940230	    -17.14682601
      2.95000000	      4.73162034	      4.31110205	   -327.50439427	     -0.43928078	      0.93270605	     -0.58919026	     23.53237987	     -0.56581520	    -17.67097353	    -28.90237955	      2.54487311	      0.47668208	    -10.55717522	     -4.67408342	    -18.40307784	    -16.01533873	     25.40222470	     -2.48571794	    -16.18917438	      1.90910720	    -17.28930971
      2.96000000	      4.72614765	      4.35651371	   -327.75693435	     -0.43039488	      0.93029287	     -0.59401863	     23.50787383	     -0.58875299	    -17.92894414	    -25.75779655	      2.23965290	      0.67860535	    -11.32806213	     -4.59037786	    -18.76127892	    -16.02423208	     26.05138337	     -2.70679296	    -16.22087890	      1.87875365	    -17.41108954
      2.97000000	      4.76438332	      4.42750589	   -327.99394765	     -0.42132740	      0.92783684	     -0.59880087	     23.39354423	     -0.61178657	    -18.16789851	    -22.74406492	      2.03551029	      0.97293004	    -12.13944953	     -4.51952522	    -19.03500492	    -16.07365659	     26.68139372	     -2.91153012	    -16.30133404	      1.84991077	    -17.52121509
      2.98000000	      4.78675564	      4.42700905	   -328.19915176	     -0.41205949	      0.92517928	     -0.60351996	     23.32450502	     -0.59387605	    -18.44728724	    -19.95144887	      1.89345101	      1.11991465	    -12.83687426	     -4.55086804	    -19.30762461	    -16.26270111	     27.36707456	     -2.99123680	    -16.30319081	      1.87972240	    -17.61070759
      2.99000000	      4.86422869	      4.43723243	   -328.38837633	     -0.40260411	      0.92254855	     -0.60820412	     23.20878625	     -0.57562895	    -18.75706634	    -17.47279171	      1.89815912	      1.28620336	    -13.58552788	     -4.61682634	    -19.50324103	    -16.47899636	     27.98768470	     -3.03651747	    -16.35551975	      1.93709624	    -17.69913087
      3.00000000	      4.95461027	      4.41066618	   -328.55036306	     -0.39296310	      0.91987316	     -0.61285937	     23.13344661	     -0.54765111	    -19.10979408	    -15.39631106	      2.03307554	      1.40268961	    -14.29451230	     -4.74963285	    -19.62445646	    -16.77589574	     28.57040513	     -3.03893028	    -16.38445291	      2.04490204	    -17.76605357
      3.01000000	      5.08146263	      4.35600321	   -328.69456691	     -0.38312638	      0.91724667	     -0.61748206	     23.07994521	     -0.50761144	    -19.50405972	    -13.78103757	      2.25841017	      1.46080586	    -15.01034849	     -4.94462011	    -19.66912566	    -17.11345702	     29.05730430	     -2.99954983	    -16.42263549	      2.20714728	    -17.81591961
      3.02000000	      5.20041478	      4.25789385	   -328.81151703	     -0.37311264	      0.91462068	     -0.62208703	     23.11909459	     -0.47817973	    -19.93036041	    -12.70631583	      2.60605018	      1.43620784	    -15.65799058	     -5.20239355	    -19.65580500	    -17.54133921	     29.48381201	     -2.94388130	    -16.42045030	      2.41964892	    -17.87949865
      3.03000000	      5.39284845	      4.11873795	   -328.92374187	     -0.36281253	      0.91218980	     -0.62670936	     23.13251346	     -0.40554622	    -20.38911760	    -12.12549906	      2.91503463	      1.24978515	    -16.37787023	     -5.53662769	    -19.56566693	    -17.94897867	     29.74916988	     -2.82351619	    -16.44380314	      2.72553143	    -17.92037881
      3.04000000	      5.59447751	      3.94338985	   -329.02064994	     -0.35222612	      0.90987491	     -0.63132139	     23.18660934	     -0.32879293	    -20.81790796	    -12.06361761	      3.26362701	      0.89729838	    -17.07386512	     -5.92880444	    -19.43422942	    -18.41186736	     29.88860071	     -2.66318817	    -16.43423163	      3.07406444	    -17.99479382
      3.05000000	      5.81695523	      3.73781470	   -329.10966545	     -0.34132081	      0.90773152	     -0.63591906	     23.24544344	     -0.23726413	    -21.22482807	    -12.46528883	      3.57129057	      0.45528741	    -17.76204664	     -6.37338042	    -19.24384655	    -18.92949745	     29.89002992	     -2.49767744	    -16.40455227	      3.46688650	    -18.07352619
      3.06000000	      6.05848849	      3.49897874	   -329.22172073	     -0.32996705	      0.90579251	     -0.64048011	     23.29317371	     -0.10323505	    -21.57680954	    -13.26305596	      3.73776216	     -0.23998650	    -18.47797289	     -6.86054513	    -19.06973711	    -19.44527803	     29.66581082	     -2.26221278	    -16.33359578	      3.89165675	    -18.16116924
      3.07000000	      6.30903948	      3.23126197	   -329.33123552	     -0.31818265	      0.90406753	     -0.64495992	     23.30584481	      0.07928071	    -21.87849096	    -14.33835037	      3.76881439	     -0.98061771	    -19.16809770	     -7.39928688	    -18.84909308	    -20.03654001	     29.26833017	     -2.00882469	    -16.21811529	      4.33125330	    -18.27865205
      3.08000000	      6.56216457	      2.92635177	   -329.44925540	     -0.30592655	      0.90258366	     -0.64932244	     23.27563801	      0.33502706	    -22.15725555	    -15.58257406	      3.60090946	     -1.81977743	    -19.82368631	     -7.98997593	    -18.59190806	    -20.69944662	     28.65656218	     -1.70490719	    -16.04081168	      4.78409098	    -18.41843396
      3.09000000	      6.80675647	      2.57790522	   -329.57050023	     -0.29321051	      0.90136769	     -0.65352623	     23.20153554	      0.67603069	    -22.44584451	    -16.88535472	      3.19112193	     -2.75099436	    -20.40831152	     -8.63846418	    -18.28499311	    -21.46496008	     27.80885066	     -1.35205519	    -15.78732525	      5.24555263	    -18.59022247
      3.10000000	      7.03033489	      2.18372361	   -329.70541956	     -0.28006832	      0.90044284	     -0.65750748	     23.09354325	      1.11121757	    -22.73768651	    -18.15917047	      2.55568652	     -3.78716134	    -20.88329658	     -9.34004099	    -17.92400704	    -22.36882078	     26.69942187	     -0.95455246	    -15.45077416	      5.70325330	    -18.78032914
      3.11000000	      7.22075730	      1.74423647	   -329.87262953	     -0.26652736	      0.89983734	     -0.66121850	     22.95720645	      1.65183107	    -22.97140830	    -19.32665598	      1.83104865	     -4.97290935	    -21.22682297	    -10.07368784	    -17.47804943	    -23.41534125	     25.26842862	     -0.49738953	    -15.02285096	      6.14626613	    -18.94929947
